<svg width="24" height="24" viewBox="0 0 24 24" fill="none" xmlns="http://www.w3.org/2000/svg">
<path d="M20.4621 5H4.74723C3.94687 5 3.6425 6.04523 4.31773 6.47493L12.4366 11.6415C12.7776 11.8585 13.2158 11.8489 13.5469 11.6171L20.9209 6.45539C21.5616 6.00684 21.2443 5 20.4621 5Z" fill="white"/>
<path d="M12.9999 14.5L4.15215 9.09298C4.08551 9.05226 4 9.10021 4 9.17831V17C4 18.1046 4.89543 19 6 19H19C20.1046 19 21 18.1046 21 17V9.1901C21 9.10958 20.9097 9.06208 20.8433 9.1077L12.9999 14.5Z" fill="white"/>
<path d="M20.4621 5H4.74723C3.94687 5 3.6425 6.04523 4.31773 6.47493L12.4366 11.6415C12.7776 11.8585 13.2158 11.8489 13.5469 11.6171L20.9209 6.45539C21.5616 6.00684 21.2443 5 20.4621 5Z" stroke="white"/>
<path d="M12.9999 14.5L4.15215 9.09298C4.08551 9.05226 4 9.10021 4 9.17831V17C4 18.1046 4.89543 19 6 19H19C20.1046 19 21 18.1046 21 17V9.1901C21 9.10958 20.9097 9.06208 20.8433 9.1077L12.9999 14.5Z" stroke="white"/>
</svg>
