<svg width="24" height="24" viewBox="0 0 24 24" fill="none" xmlns="http://www.w3.org/2000/svg">
<path d="M9.7107 20.435C9.7107 20.7451 9.46833 20.9998 8.91315 21L16.3283 20.9977C15.7267 20.9978 15.5214 20.7486 15.5214 20.435C15.5214 20.0509 15.5355 18.7871 15.5355 17.2202C15.5944 16.4171 15.3057 15.6275 14.7426 15.0519C17.3526 14.7617 20.0894 13.7727 20.0894 9.27054C20.1087 8.10727 19.6778 6.98153 18.8866 6.1285C19.2453 5.11786 19.2033 4.0082 18.7691 3.02758C18.7691 3.02758 17.7872 2.71044 15.5484 4.22684C13.6293 3.70063 11.604 3.70063 9.68486 4.22684C7.44726 2.71162 6.46413 3.02758 6.46413 3.02758C6.03201 4.00866 5.99001 5.11755 6.34667 6.1285C5.5584 6.98161 5.12711 8.1044 5.14154 9.26584C5.14154 13.7563 7.87599 14.7617 10.4765 15.0566C10.0496 15.4736 9.78519 16.0291 9.73067 16.6235C9.15044 16.9489 8.46428 17.029 7.82467 16.8462C7.18505 16.6634 6.64494 16.2326 6.32435 15.6497C5.94561 14.9913 5.28329 14.5454 4.53075 14.4423C4.53075 14.4423 3.39258 14.4258 4.44971 15.1529C5.07409 15.5503 5.5354 16.1583 5.74998 16.8666C5.74998 16.8666 6.43829 19.143 9.69778 18.4382C9.7013 19.419 9.7107 20.1566 9.7107 20.435Z" fill="white"/>
</svg>
