<svg width="600" height="400" viewBox="0 0 600 400" fill="none" xmlns="http://www.w3.org/2000/svg">
<g clip-path="url(#clip0_1_4)">
<path d="M410.025 399.879V377.032C410.025 365.986 401.071 357.032 390.025 357.032H359.78C348.734 357.032 339.78 348.077 339.78 337.032V286.984M600 55.1759H552.921M241.534 258.579V266.984C241.534 278.03 250.488 286.984 261.534 286.984H339.78M241.534 258.579H226.532C215.486 258.579 206.532 267.534 206.532 278.579V333.562M241.534 258.579V224.88M206.532 399.879V333.562M206.532 333.562H117.665C106.619 333.562 97.6647 324.608 97.6647 313.562V306.984C97.6647 295.938 88.7104 286.984 77.6647 286.984H0M339.78 286.984H467.753C478.799 286.984 487.753 295.938 487.753 306.984V343.431M241.534 224.88V224.88C241.534 216.105 248.647 208.992 257.421 208.992H326M241.534 224.88H64.2623M0 224.88H64.2623M64.2623 224.88V201.575C64.2623 190.53 55.308 181.575 44.2623 181.575H0M360.419 208.992H417.785C428.831 208.992 437.785 200.038 437.785 188.992V170.538M360.419 208.992V238.58C360.419 249.625 369.373 258.579 380.419 258.579H498.919C509.965 258.579 518.919 249.625 518.919 238.579V205.79M360.419 208.992H326M600 153H564.429M564.429 153H538.919C527.873 153 518.919 161.954 518.919 173V205.79M564.429 153V115.357C564.429 104.311 573.383 95.357 584.429 95.357H600M518.919 205.79H600M487.753 399.879V343.431M487.753 343.431H544.429C555.475 343.431 564.429 334.477 564.429 323.431V308.569M600 273.706H584.429C573.383 273.706 564.429 282.66 564.429 293.706V308.569M564.429 308.569H580C591.046 308.569 600 317.523 600 328.569V399.879M437.785 132.084V75.1759C437.785 64.1302 446.739 55.1759 457.785 55.1759H552.921M437.785 132.084V170.538M437.785 132.084H413.941C403.48 132.084 395 140.564 395 151.025V151.025C395 161.402 386.651 169.846 376.275 169.965L345.772 170.313C334.816 170.438 326 179.355 326 190.311V208.992M437.785 170.538L469.929 170.05C480.855 169.884 489.625 160.98 489.625 150.052V96.6354C489.625 85.5897 498.579 76.6353 509.625 76.6353H532.921C543.966 76.6353 552.921 67.681 552.921 56.6354V55.1759" stroke="#6F73D2"/>
<g filter="url(#filter0_f_1_4)">
<rect x="378.162" y="202.426" width="14.4835" height="11.5543" rx="4" fill="#6F73D2" fill-opacity="0.8"/>
</g>
<g filter="url(#filter1_f_1_4)">
<rect x="555.512" y="200.308" width="14.4835" height="11.5543" rx="4" fill="#6F73D2" fill-opacity="0.8"/>
</g>
<g filter="url(#filter2_f_1_4)">
<rect x="197.193" y="386.922" width="17.0492" height="13.078" rx="4" fill="#2816F9" fill-opacity="0.6"/>
</g>
<g filter="url(#filter3_f_1_4)">
<rect x="479.163" y="317.554" width="17.0492" height="13.078" rx="4" fill="#2816F9" fill-opacity="0.6"/>
</g>
<g filter="url(#filter4_f_1_4)">
<rect x="561.813" y="274.198" width="17.0492" height="13.078" rx="4" fill="#2816F9" fill-opacity="0.6"/>
</g>
<g filter="url(#filter5_f_1_4)">
<rect x="487.631" y="79.0875" width="17.0492" height="13.078" rx="4" fill="#2816F9" fill-opacity="0.6"/>
</g>
<g filter="url(#filter6_f_1_4)">
<rect x="561.813" y="98.8058" width="17.0492" height="13.078" rx="4" fill="#2816F9" fill-opacity="0.6"/>
</g>
<g filter="url(#filter7_f_1_4)">
<rect x="18.8317" y="174.678" width="17.0492" height="13.078" rx="4" fill="#FFE55C"/>
</g>
<g filter="url(#filter8_f_1_4)">
<rect x="401.542" y="386.922" width="17.0492" height="13.078" rx="4" fill="#FFC700"/>
</g>
<g filter="url(#filter9_f_1_4)">
<rect x="325" y="168" width="17.0492" height="13.078" rx="4" fill="#FFC700"/>
</g>
<g filter="url(#filter10_f_1_4)">
<rect x="62.2951" y="280.266" width="17.0492" height="13.078" rx="4" fill="#FFC700"/>
</g>
<g filter="url(#filter11_f_1_4)">
<rect x="432.131" y="93.2505" width="17.0492" height="13.078" rx="4" fill="#FFC700"/>
</g>
<g filter="url(#filter12_f_1_4)">
<rect x="524.15" y="149.059" width="17.0492" height="13.078" rx="4" fill="#FFC700"/>
</g>
<g filter="url(#filter13_f_1_4)">
<rect x="440.453" y="253.506" width="17.0492" height="13.078" rx="4" fill="#FFC700"/>
</g>
<g filter="url(#filter14_f_1_4)">
<rect x="537.751" y="334.35" width="17.0492" height="13.078" rx="4" fill="#FFC700"/>
</g>
</g>
<defs>
<filter id="filter0_f_1_4" x="368.162" y="192.426" width="34.4835" height="31.5543" filterUnits="userSpaceOnUse" color-interpolation-filters="sRGB">
<feFlood flood-opacity="0" result="BackgroundImageFix"/>
<feBlend mode="normal" in="SourceGraphic" in2="BackgroundImageFix" result="shape"/>
<feGaussianBlur stdDeviation="5" result="effect1_foregroundBlur_1_4"/>
</filter>
<filter id="filter1_f_1_4" x="545.512" y="190.308" width="34.4835" height="31.5543" filterUnits="userSpaceOnUse" color-interpolation-filters="sRGB">
<feFlood flood-opacity="0" result="BackgroundImageFix"/>
<feBlend mode="normal" in="SourceGraphic" in2="BackgroundImageFix" result="shape"/>
<feGaussianBlur stdDeviation="5" result="effect1_foregroundBlur_1_4"/>
</filter>
<filter id="filter2_f_1_4" x="187.193" y="376.922" width="37.0492" height="33.078" filterUnits="userSpaceOnUse" color-interpolation-filters="sRGB">
<feFlood flood-opacity="0" result="BackgroundImageFix"/>
<feBlend mode="normal" in="SourceGraphic" in2="BackgroundImageFix" result="shape"/>
<feGaussianBlur stdDeviation="5" result="effect1_foregroundBlur_1_4"/>
</filter>
<filter id="filter3_f_1_4" x="469.163" y="307.554" width="37.0492" height="33.078" filterUnits="userSpaceOnUse" color-interpolation-filters="sRGB">
<feFlood flood-opacity="0" result="BackgroundImageFix"/>
<feBlend mode="normal" in="SourceGraphic" in2="BackgroundImageFix" result="shape"/>
<feGaussianBlur stdDeviation="5" result="effect1_foregroundBlur_1_4"/>
</filter>
<filter id="filter4_f_1_4" x="551.813" y="264.198" width="37.0492" height="33.078" filterUnits="userSpaceOnUse" color-interpolation-filters="sRGB">
<feFlood flood-opacity="0" result="BackgroundImageFix"/>
<feBlend mode="normal" in="SourceGraphic" in2="BackgroundImageFix" result="shape"/>
<feGaussianBlur stdDeviation="5" result="effect1_foregroundBlur_1_4"/>
</filter>
<filter id="filter5_f_1_4" x="477.631" y="69.0875" width="37.0492" height="33.078" filterUnits="userSpaceOnUse" color-interpolation-filters="sRGB">
<feFlood flood-opacity="0" result="BackgroundImageFix"/>
<feBlend mode="normal" in="SourceGraphic" in2="BackgroundImageFix" result="shape"/>
<feGaussianBlur stdDeviation="5" result="effect1_foregroundBlur_1_4"/>
</filter>
<filter id="filter6_f_1_4" x="551.813" y="88.8058" width="37.0492" height="33.078" filterUnits="userSpaceOnUse" color-interpolation-filters="sRGB">
<feFlood flood-opacity="0" result="BackgroundImageFix"/>
<feBlend mode="normal" in="SourceGraphic" in2="BackgroundImageFix" result="shape"/>
<feGaussianBlur stdDeviation="5" result="effect1_foregroundBlur_1_4"/>
</filter>
<filter id="filter7_f_1_4" x="8.83173" y="164.678" width="37.0492" height="33.078" filterUnits="userSpaceOnUse" color-interpolation-filters="sRGB">
<feFlood flood-opacity="0" result="BackgroundImageFix"/>
<feBlend mode="normal" in="SourceGraphic" in2="BackgroundImageFix" result="shape"/>
<feGaussianBlur stdDeviation="5" result="effect1_foregroundBlur_1_4"/>
</filter>
<filter id="filter8_f_1_4" x="391.542" y="376.922" width="37.0492" height="33.078" filterUnits="userSpaceOnUse" color-interpolation-filters="sRGB">
<feFlood flood-opacity="0" result="BackgroundImageFix"/>
<feBlend mode="normal" in="SourceGraphic" in2="BackgroundImageFix" result="shape"/>
<feGaussianBlur stdDeviation="5" result="effect1_foregroundBlur_1_4"/>
</filter>
<filter id="filter9_f_1_4" x="315" y="158" width="37.0492" height="33.078" filterUnits="userSpaceOnUse" color-interpolation-filters="sRGB">
<feFlood flood-opacity="0" result="BackgroundImageFix"/>
<feBlend mode="normal" in="SourceGraphic" in2="BackgroundImageFix" result="shape"/>
<feGaussianBlur stdDeviation="5" result="effect1_foregroundBlur_1_4"/>
</filter>
<filter id="filter10_f_1_4" x="52.2951" y="270.266" width="37.0492" height="33.078" filterUnits="userSpaceOnUse" color-interpolation-filters="sRGB">
<feFlood flood-opacity="0" result="BackgroundImageFix"/>
<feBlend mode="normal" in="SourceGraphic" in2="BackgroundImageFix" result="shape"/>
<feGaussianBlur stdDeviation="5" result="effect1_foregroundBlur_1_4"/>
</filter>
<filter id="filter11_f_1_4" x="422.131" y="83.2505" width="37.0492" height="33.078" filterUnits="userSpaceOnUse" color-interpolation-filters="sRGB">
<feFlood flood-opacity="0" result="BackgroundImageFix"/>
<feBlend mode="normal" in="SourceGraphic" in2="BackgroundImageFix" result="shape"/>
<feGaussianBlur stdDeviation="5" result="effect1_foregroundBlur_1_4"/>
</filter>
<filter id="filter12_f_1_4" x="514.15" y="139.059" width="37.0492" height="33.078" filterUnits="userSpaceOnUse" color-interpolation-filters="sRGB">
<feFlood flood-opacity="0" result="BackgroundImageFix"/>
<feBlend mode="normal" in="SourceGraphic" in2="BackgroundImageFix" result="shape"/>
<feGaussianBlur stdDeviation="5" result="effect1_foregroundBlur_1_4"/>
</filter>
<filter id="filter13_f_1_4" x="430.453" y="243.506" width="37.0492" height="33.078" filterUnits="userSpaceOnUse" color-interpolation-filters="sRGB">
<feFlood flood-opacity="0" result="BackgroundImageFix"/>
<feBlend mode="normal" in="SourceGraphic" in2="BackgroundImageFix" result="shape"/>
<feGaussianBlur stdDeviation="5" result="effect1_foregroundBlur_1_4"/>
</filter>
<filter id="filter14_f_1_4" x="527.751" y="324.35" width="37.0492" height="33.078" filterUnits="userSpaceOnUse" color-interpolation-filters="sRGB">
<feFlood flood-opacity="0" result="BackgroundImageFix"/>
<feBlend mode="normal" in="SourceGraphic" in2="BackgroundImageFix" result="shape"/>
<feGaussianBlur stdDeviation="5" result="effect1_foregroundBlur_1_4"/>
</filter>
<clipPath id="clip0_1_4">
<rect width="600" height="400" fill="white"/>
</clipPath>
</defs>
</svg>
