<svg width="500" height="500" viewBox="0 0 500 500" fill="none" xmlns="http://www.w3.org/2000/svg">
<g clip-path="url(#clip0_1828_184)">
<path d="M154.126 387.6C140.9 387.6 130.34 382.8 122.446 373.2C114.553 363.6 110.606 351.013 110.606 335.44C110.606 318.373 114.553 302.267 122.446 287.12C130.34 271.76 140.793 259.493 153.806 250.32C167.033 240.933 181.006 236.24 195.726 236.24C200.42 236.24 203.513 237.2 205.006 239.12C206.713 240.827 208.1 244.027 209.166 248.72C213.646 247.867 218.34 247.44 223.246 247.44C233.7 247.44 238.926 251.173 238.926 258.64C238.926 263.12 237.326 273.787 234.126 290.64C229.22 315.173 226.766 332.24 226.766 341.84C226.766 345.04 227.513 347.6 229.006 349.52C230.713 351.44 232.846 352.4 235.406 352.4C239.46 352.4 244.366 349.84 250.126 344.72C255.886 339.387 263.673 330.853 273.486 319.12C276.046 316.133 278.926 314.64 282.126 314.64C284.9 314.64 287.033 315.92 288.526 318.48C290.233 321.04 291.086 324.56 291.086 329.04C291.086 337.573 289.06 344.187 285.006 348.88C276.26 359.76 266.98 368.933 257.166 376.4C247.353 383.867 237.86 387.6 228.686 387.6C221.646 387.6 215.14 385.253 209.166 380.56C203.406 375.653 199.033 369.04 196.046 360.72C184.953 378.64 170.98 387.6 154.126 387.6ZM165.646 355.28C170.34 355.28 174.82 352.507 179.086 346.96C183.353 341.413 186.446 334.053 188.366 324.88L200.206 266C191.246 266.213 182.926 269.627 175.246 276.24C167.78 282.64 161.806 291.173 157.326 301.84C152.846 312.507 150.606 323.813 150.606 335.76C150.606 342.373 151.886 347.28 154.446 350.48C157.22 353.68 160.953 355.28 165.646 355.28ZM328.439 387.6C307.105 387.6 291.532 379.387 281.719 362.96C272.119 346.533 267.319 322.747 267.319 291.6C267.319 264.08 270.732 234.213 277.559 202C284.385 169.573 294.305 142.053 307.319 119.44C320.545 96.6133 336.225 85.2 354.359 85.2C364.172 85.2 372.065 89.4667 378.039 98C384.012 106.32 386.999 117.2 386.999 130.64C386.999 148.133 383.692 165.52 377.079 182.8C370.465 200.08 359.479 218.213 344.119 237.2C354.572 238.053 363.639 241.573 371.319 247.76C379.212 253.947 385.185 261.947 389.239 271.76C393.505 281.573 395.639 292.24 395.639 303.76C395.639 319.76 392.439 334.16 386.039 346.96C379.852 359.76 371.639 369.787 361.399 377.04C351.159 384.08 340.172 387.6 328.439 387.6ZM309.559 258.96C323.639 233.147 334.839 210.427 343.159 190.8C351.692 170.96 355.959 153.36 355.959 138C355.959 131.173 355.105 125.947 353.399 122.32C351.905 118.693 349.772 116.88 346.999 116.88C342.732 116.88 338.039 123.28 332.919 136.08C328.012 148.667 323.425 165.84 319.159 187.6C314.892 209.36 311.692 233.147 309.559 258.96ZM329.719 353.04C336.972 353.04 343.052 349.093 347.959 341.2C353.079 333.307 355.639 321.787 355.639 306.64C355.639 294.907 353.505 286.053 349.239 280.08C344.972 274.107 339.852 271.12 333.879 271.12C326.412 271.12 320.119 274.96 314.999 282.64C309.879 290.32 307.319 301.52 307.319 316.24C307.319 329.04 309.452 338.427 313.719 344.4C317.985 350.16 323.319 353.04 329.719 353.04Z" fill="white"/>
</g>
<defs>
<clipPath id="clip0_1828_184">
<rect width="500" height="500" rx="250" fill="white"/>
</clipPath>
</defs>
</svg>
