<svg width="60" height="60" viewBox="0 0 60 60" fill="none" xmlns="http://www.w3.org/2000/svg">
<g clip-path="url(#clip0_23_4)">
<path d="M17.9533 47.2C16.2999 47.2 14.9799 46.6 13.9933 45.4C13.0066 44.2 12.5133 42.6267 12.5133 40.68C12.5133 38.5467 13.0066 36.5333 13.9933 34.64C14.9799 32.72 16.2866 31.1867 17.9133 30.04C19.5666 28.8667 21.3133 28.28 23.1533 28.28C23.7399 28.28 24.1266 28.4 24.3133 28.64C24.5266 28.8533 24.6999 29.2533 24.8333 29.84C25.3933 29.7333 25.9799 29.68 26.5933 29.68C27.8999 29.68 28.5533 30.1467 28.5533 31.08C28.5533 31.64 28.3533 32.9733 27.9533 35.08C27.3399 38.1467 27.0333 40.28 27.0333 41.48C27.0333 41.88 27.1266 42.2 27.3133 42.44C27.5266 42.68 27.7933 42.8 28.1133 42.8C28.6199 42.8 29.2333 42.48 29.9533 41.84C30.6733 41.1733 31.6466 40.1067 32.8733 38.64C33.1933 38.2667 33.5533 38.08 33.9533 38.08C34.2999 38.08 34.5666 38.24 34.7533 38.56C34.9666 38.88 35.0733 39.32 35.0733 39.88C35.0733 40.9467 34.8199 41.7733 34.3133 42.36C33.2199 43.72 32.0599 44.8667 30.8333 45.8C29.6066 46.7333 28.4199 47.2 27.2733 47.2C26.3933 47.2 25.5799 46.9067 24.8333 46.32C24.1133 45.7067 23.5666 44.88 23.1933 43.84C21.8066 46.08 20.0599 47.2 17.9533 47.2ZM19.3933 43.16C19.9799 43.16 20.5399 42.8133 21.0733 42.12C21.6066 41.4267 21.9933 40.5067 22.2333 39.36L23.7133 32C22.5933 32.0267 21.5533 32.4533 20.5933 33.28C19.6599 34.08 18.9133 35.1467 18.3533 36.48C17.7933 37.8133 17.5133 39.2267 17.5133 40.72C17.5133 41.5467 17.6733 42.16 17.9933 42.56C18.3399 42.96 18.8066 43.16 19.3933 43.16ZM39.7423 47.2C37.0757 47.2 35.129 46.1733 33.9023 44.12C32.7023 42.0667 32.1023 39.0933 32.1023 35.2C32.1023 31.76 32.529 28.0267 33.3823 24C34.2357 19.9467 35.4757 16.5067 37.1023 13.68C38.7557 10.8267 40.7157 9.4 42.9823 9.4C44.209 9.4 45.1957 9.93333 45.9423 11C46.689 12.04 47.0623 13.4 47.0623 15.08C47.0623 17.2667 46.649 19.44 45.8223 21.6C44.9957 23.76 43.6223 26.0267 41.7023 28.4C43.009 28.5067 44.1423 28.9467 45.1023 29.72C46.089 30.4933 46.8357 31.4933 47.3423 32.72C47.8757 33.9467 48.1423 35.28 48.1423 36.72C48.1423 38.72 47.7423 40.52 46.9423 42.12C46.169 43.72 45.1423 44.9733 43.8623 45.88C42.5823 46.76 41.209 47.2 39.7423 47.2ZM37.3823 31.12C39.1423 27.8933 40.5423 25.0533 41.5823 22.6C42.649 20.12 43.1823 17.92 43.1823 16C43.1823 15.1467 43.0757 14.4933 42.8623 14.04C42.6757 13.5867 42.409 13.36 42.0623 13.36C41.529 13.36 40.9423 14.16 40.3023 15.76C39.689 17.3333 39.1157 19.48 38.5823 22.2C38.049 24.92 37.649 27.8933 37.3823 31.12ZM39.9023 42.88C40.809 42.88 41.569 42.3867 42.1823 41.4C42.8223 40.4133 43.1423 38.9733 43.1423 37.08C43.1423 35.6133 42.8757 34.5067 42.3423 33.76C41.809 33.0133 41.169 32.64 40.4223 32.64C39.489 32.64 38.7023 33.12 38.0623 34.08C37.4223 35.04 37.1023 36.44 37.1023 38.28C37.1023 39.88 37.369 41.0533 37.9023 41.8C38.4357 42.52 39.1023 42.88 39.9023 42.88Z" fill="black"/>
</g>
<defs>
<clipPath id="clip0_23_4">
<rect width="60" height="60" fill="white"/>
</clipPath>
</defs>
</svg>
