<svg width="48" height="48" viewBox="0 0 48 48" fill="none" xmlns="http://www.w3.org/2000/svg">
<path d="M42 10C40.596 10.8102 37.779 11.9144 36.123 12.2329C36.0744 12.2451 36.0348 12.2609 35.988 12.2731C34.5246 10.8697 32.5194 10 30.3 10C25.827 10 22.2 13.526 22.2 17.8745C22.2 18.1037 22.1802 18.5255 22.2 18.7495C16.1646 18.7495 11.571 15.6766 8.277 11.7499C7.9188 12.6248 7.7622 14.0073 7.7622 15.3057C7.7622 17.7573 9.7332 20.1651 12.8022 21.6578C12.237 21.7995 11.6142 21.901 10.9662 21.901C9.9204 21.901 8.8134 21.6333 7.8 20.8213C7.8 20.8511 7.8 20.8791 7.8 20.9106C7.8 24.3369 11.5404 26.6695 14.8668 27.3187C14.1918 27.7054 12.831 27.7439 12.1668 27.7439C11.6988 27.7439 10.0428 27.5357 9.6 27.4552C10.5252 30.2637 13.8624 31.8421 17.043 31.8981C14.5554 33.795 12.8292 34.4985 7.7352 34.4985H6C9.2184 36.5038 13.317 38 17.4246 38C30.7986 38 38.4 28.0904 38.4 18.7495C38.4 18.599 38.3964 18.284 38.391 17.9673C38.391 17.9358 38.4 17.906 38.4 17.8745C38.4 17.8273 38.3856 17.7818 38.3856 17.7345C38.3802 17.4965 38.3748 17.2743 38.3694 17.1588C39.7914 16.1614 41.0244 14.9172 42 13.4998C40.695 14.0632 39.2946 14.4412 37.824 14.6127C39.3252 13.7378 41.4582 11.6519 42 10Z" fill="white"/>
</svg>
